<svg xmlns="http://www.w3.org/2000/svg" viewBox="0 0 1400 900">
<rect width="1400" height="900" fill="#f2eee7"/>
<path d="M0 615 C175 550 285 455 430 520 C635 610 700 345 900 390 C1070 428 1160 290 1400 238 L1400 900 L0 900 Z" fill="#d3c6b6"/>
<path d="M0 725 C240 625 375 700 565 585 C765 462 900 535 1400 395 L1400 900 L0 900 Z" fill="#aa967f"/>
<path d="M0 790 C280 710 435 745 670 645 C900 548 1040 635 1400 500 L1400 900 L0 900 Z" fill="#6e775f" opacity=".76"/>
<text x="88" y="135" font-family="Arial, Helvetica, sans-serif" font-weight="700" font-size="64" fill="#171717">Accoglienza</text>
<text x="92" y="190" font-family="Arial, Helvetica, sans-serif" font-size="28" fill="#3f3831">Visite, degustazioni e percorsi lenti</text>
</svg>