<svg xmlns="http://www.w3.org/2000/svg" viewBox="0 0 1400 900"><rect width="1400" height="900" fill="#f2eee7"/><path d="M0 620 C180 560 270 470 410 520 C610 592 690 350 880 390 C1050 425 1130 300 1400 235 L1400 900 L0 900 Z" fill="#d2c5b5"/><path d="M0 735 C230 625 365 700 555 585 C750 467 900 535 1400 395 L1400 900 L0 900 Z" fill="#a6927d"/><path d="M0 785 C280 705 430 745 660 645 C885 545 1030 635 1400 500 L1400 900 L0 900 Z" fill="#69745e" opacity=".75"/><text x="88" y="135" font-family="Arial,Helvetica,sans-serif" font-weight="700" font-size="64" fill="#171717">La strada</text><text x="92" y="190" font-family="Arial,Helvetica,sans-serif" font-size="28" fill="#3f3831">Dai vigneti bassi al crinale, fino al rientro nel borgo</text></svg>